<svg xmlns="http://www.w3.org/2000/svg" width="30" height="30" viewBox="0 0 30 30">
  <defs>
    <style>
      .cls-1 {
        fill: #fff;
        fill-rule: evenodd;
      }
    </style>
  </defs>
  <path id="Фигура_5_копия" data-name="Фигура 5 копия" class="cls-1" d="M525.751,1459h-5.614a1.255,1.255,0,0,0-1.231,1.02l-2.963,16.1H498.249a1.25,1.25,0,0,0,0,2.5h1.665v2.97a3.783,3.783,0,1,0,2.5-.1v-2.87h10.524v2.9a3.861,3.861,0,0,0-2.565,3.64,3.784,3.784,0,1,0,5.063-3.61v-2.93h1.55a1.249,1.249,0,0,0,1.23-1.02l2.964-16.1h4.573a1.25,1.25,0,0,0,0-2.5h0ZM501.3,1486.5a1.341,1.341,0,1,1,1.286-1.34,1.314,1.314,0,0,1-1.286,1.34h0Zm12.851,0a1.341,1.341,0,1,1,1.286-1.34,1.314,1.314,0,0,1-1.286,1.34h0Zm0,0-15.373-12.05h15.012a1.242,1.242,0,0,0,1.249-1.25v-10.05a1.248,1.248,0,0,0-1.249-1.25H498.782a1.248,1.248,0,0,0-1.249,1.25v10.05a1.248,1.248,0,0,0,1.249,1.25h0Zm1.249-10.04h12.508v7.54H500.031v-7.54Zm0,0" transform="translate(-497 -1459)"/>
</svg>
