<svg xmlns="http://www.w3.org/2000/svg" width="20" height="24" viewBox="0 0 20 24">
  <defs>
    <style>
      .cls-1 {
        fill: #fff;
        fill-rule: evenodd;
      }
    </style>
  </defs>
  <path id="Фигура_6_копия" data-name="Фигура 6 копия" class="cls-1" d="M441.957,1460.74l7.85,12.82a1.285,1.285,0,0,1,.192.67,9.587,9.587,0,0,1-2.929,6.91,10.042,10.042,0,0,1-7.071,2.87,9.9,9.9,0,0,1-10-9.78,1.276,1.276,0,0,1,.192-0.67s8.1-12.55,8.318-12.82A2.342,2.342,0,0,1,441.957,1460.74ZM440,1462.7l6.275,10.22h-12.55Zm0,18.67a7.272,7.272,0,0,1-7.181-5.82H447.18A7.272,7.272,0,0,1,440,1481.37Z" transform="translate(-430 -1460)"/>
</svg>
