<?xml version="1.0" encoding="iso-8859-1"?>
<!-- Generator: Adobe Illustrator 19.0.0, SVG Export Plug-In . SVG Version: 6.00 Build 0)  -->
<svg version="1.1" id="&#x421;&#x43B;&#x43E;&#x439;_1"
	 xmlns="http://www.w3.org/2000/svg" xmlns:xlink="http://www.w3.org/1999/xlink" x="0px" y="0px" viewBox="-120 223.89 354.14 395"
	 style="enable-background:new -120 223.89 354.14 395;" xml:space="preserve" width="54">
<g>
	<path style="fill:#4F9ABD;" d="M97.933,537.167H16.21c-7.531,0-13.625-6.089-13.625-13.621v-95.344
		c0-7.531,6.094-13.621,13.625-13.621h81.723c7.527,0,13.617,6.09,13.617,13.621v95.344
		C111.55,531.078,105.46,537.167,97.933,537.167L97.933,537.167z M29.828,509.925h54.484V441.82H29.828V509.925z"/>
	<path style="fill:#E7E7E7;" d="M234.14,346.476v-51.199c0-24.34-19.808-44.145-44.148-44.145h-64.817v-13.621
		c0-7.531-6.093-13.621-13.625-13.621c-7.527,0-13.617,6.09-13.617,13.621v13.621H16.21v-13.621c0-7.531-6.093-13.621-13.625-13.621
		c-7.527,0-13.617,6.09-13.617,13.621v13.621h-64.82c-24.34,0-44.148,19.805-44.148,44.145v279.465
		c0,24.343,19.808,44.148,44.148,44.148h265.844c24.34,0,44.148-19.805,44.148-44.148V400.956c0-7.527-6.09-13.617-13.621-13.617
		c-7.527,0-13.621,6.09-13.621,13.617v173.786c0,9.324-7.582,16.906-16.906,16.906H-75.852c-9.324,0-16.902-7.582-16.902-16.906
		V360.097h313.273C228.05,360.097,234.14,354.003,234.14,346.476L234.14,346.476z M-92.754,332.855v-37.578
		c0-9.321,7.578-16.903,16.902-16.903h64.82v13.618c0,7.531,6.09,13.625,13.617,13.625c7.532,0,13.625-6.094,13.625-13.625v-13.618
		h81.723v13.618c0,7.531,6.09,13.625,13.617,13.625c7.532,0,13.625-6.094,13.625-13.625v-13.618h64.817
		c9.324,0,16.906,7.582,16.906,16.903v37.578H-92.754z"/>
	<path style="fill:#E7E7E7;" d="M-24.653,441.82c7.528,0,13.621-6.09,13.621-13.618c0-7.531-6.093-13.621-13.621-13.621h-40.863
		c-7.527,0-13.621,6.09-13.621,13.621v95.344c0,7.532,6.094,13.621,13.621,13.621h40.863c7.528,0,13.621-6.089,13.621-13.621
		c0-7.527-6.093-13.621-13.621-13.621h-27.242V441.82H-24.653z"/>
	<path style="fill:#E7E7E7;" d="M138.796,509.925c-7.531,0-13.621,6.094-13.621,13.621c0,7.532,6.09,13.621,13.621,13.621h40.864
		c7.527,0,13.617-6.089,13.617-13.621v-95.344c0-7.531-6.09-13.621-13.617-13.621h-40.864c-7.531,0-13.621,6.09-13.621,13.621
		c0,7.528,6.09,13.618,13.621,13.618h27.239v68.105H138.796z"/>
</g>
</svg>
