<?xml version="1.0" encoding="iso-8859-1"?>
<!-- Generator: Adobe Illustrator 19.0.0, SVG Export Plug-In . SVG Version: 6.00 Build 0)  -->
<svg version="1.1" id="&#x421;&#x43B;&#x43E;&#x439;_1"
	 xmlns="http://www.w3.org/2000/svg" xmlns:xlink="http://www.w3.org/1999/xlink" x="0px" y="0px"
	 viewBox="-109 215.891 375.703 410.999" style="enable-background:new -109 215.891 375.703 410.999;" xml:space="preserve" width="55">
<g>
	<g>
		<path style="fill:#4F9ABD;" d="M136.742,434.331c0,30.161-24.453,54.61-54.609,54.61c-30.16,0-54.609-24.449-54.609-54.61
			c0-30.16,24.449-54.609,54.609-54.609C112.289,379.722,136.742,404.171,136.742,434.331L136.742,434.331z"/>
		<path style="fill:#E7E7E7;" d="M266.289,542.777l-74.937-295.59V229.55c0-5.453-3.242-10.375-8.242-12.535
			c-5-2.172-10.797-1.133-14.774,2.586l-34.539,32.531l-38.199-32.93c-5.223-4.468-12.961-4.402-18.051,0.2l-36.41,32.769
			L4.348,219.359c-5.086-4.559-12.781-4.614-18.008-0.16l-38.144,32.894l-34.145-32.437c-3.945-3.774-9.77-4.813-14.781-2.653
			c-5.016,2.157-8.27,7.09-8.27,12.547v314c0,7.547,6.106,13.652,13.653,13.652h55.429l15.055,59.395
			c0.894,3.508,3.148,6.52,6.254,8.375c2.133,1.266,4.547,1.918,6.988,1.918c1.121,0,2.254-0.133,3.36-0.41l264.671-67.106
			c3.508-0.89,6.52-3.144,8.371-6.25C266.637,550.015,267.168,546.296,266.289,542.777L266.289,542.777z M-81.695,261.359
			l20.051,19.039c5.093,4.867,13.015,5.023,18.316,0.453l38.442-33.149l36.968,32.989c5.211,4.625,13.039,4.625,18.227-0.039
			l36.57-32.907l38.395,33.106c5.304,4.574,13.187,4.387,18.281-0.399l20.488-19.308v268.754H-81.695V261.359z M-11.734,557.202
			h165.586l-155.594,39.45L-11.734,557.202z M190.469,547.917c0.477-1.386,0.883-2.82,0.883-4.371V358.328l45.117,177.929
			L190.469,547.917z"/>
	</g>
	<path style="fill:#E7E7E7;" d="M123.086,311.46H-40.742c-7.543,0-13.648,6.106-13.648,13.653s6.105,13.656,13.648,13.656h163.828
		c7.547,0,13.656-6.109,13.656-13.656S130.633,311.46,123.086,311.46L123.086,311.46z"/>
	<path style="fill:#E7E7E7;" d="M13.867,366.07h-54.609c-7.543,0-13.648,6.105-13.648,13.652s6.105,13.652,13.648,13.652h54.609
		c7.547,0,13.657-6.105,13.657-13.652S21.414,366.07,13.867,366.07L13.867,366.07z"/>
	<path style="fill:#E7E7E7;" d="M13.867,475.288h-54.609c-7.543,0-13.648,6.11-13.648,13.653c0,7.547,6.105,13.652,13.648,13.652
		h54.609c7.547,0,13.657-6.105,13.657-13.652C27.524,481.398,21.414,475.288,13.867,475.288L13.867,475.288z"/>
	<path style="fill:#E7E7E7;" d="M-40.742,447.984h27.309c7.547,0,13.652-6.11,13.652-13.653c0-7.546-6.105-13.652-13.652-13.652
		h-27.309c-7.543,0-13.648,6.106-13.648,13.652C-54.39,441.874-48.285,447.984-40.742,447.984L-40.742,447.984z"/>
</g>
</svg>
