<?xml version="1.0" encoding="iso-8859-1"?>
<!-- Generator: Adobe Illustrator 19.0.0, SVG Export Plug-In . SVG Version: 6.00 Build 0)  -->
<svg version="1.1" id="&#x421;&#x43B;&#x43E;&#x439;_1"
	 xmlns="http://www.w3.org/2000/svg" xmlns:xlink="http://www.w3.org/1999/xlink" x="0px" y="0px"
	 viewBox="-128 278.054 339 286.836" width="70" style="enable-background:new -128 278.054 339 286.836;" xml:space="preserve">
<g>
	<path style="fill:#4F9ABD;" d="M58.746,304.535l20.481-6l-6,20.48l6,20.48l-20.481-6l-20.48,6l5.996-20.48l-5.996-20.48
		L58.746,304.535z"/>
	<path style="fill:#4F9ABD;" d="M-84.613,284.054l20.476-6l-5.996,20.481l5.996,20.48l-20.476-5.996l-20.481,5.996l5.996-20.48
		l-5.996-20.481L-84.613,284.054z"/>
	<g>
		<path style="fill:#4F9ABD;" d="M-12.934,335.253l20.481-6l-6,20.481l6,20.48l-20.481-5.996l-20.48,5.996l5.996-20.48
			l-5.996-20.481L-12.934,335.253z"/>
		<path style="fill:#E7E7E7;" d="M210.465,438.093c-2.102-6.641-8.102-11.18-15.078-11.469l-38.922-4.578l-11.692-30.371
			c-2.25-6.711-8.558-11.211-15.707-11.223c-0.011,0-0.011,0-0.019,0c-7.152,0-13.473,4.5-15.582,10.793l-11.852,30.797
			l-25.394,2.993l-13.004-33.79c-2.57-7.312-9.27-12.023-17.129-12.023c-0.012,0-0.012,0-0.024,0
			c-7.949,0.012-14.707,4.832-17.046,11.852L15.59,425.952l-33.195-3.91l-11.7-30.371c-2.25-6.707-8.562-11.207-15.711-11.219
			c-0.011,0-0.011,0-0.019,0c-7.153,0-13.469,4.5-15.582,10.79l-11.848,30.8l-38.91,4.578c-6.98,0.293-12.98,4.832-15.082,11.473
			c-2.148,6.77,0.344,14.098,5.562,17.731l26.571,21.988l-7.223,35.433c-1.867,6.547,0.43,13.34,5.981,17.477
			c2.929,2.18,6.402,3.289,9.902,3.289c3.43,0,6.887-1.059,9.937-3.199l30.692-22.969l26.25,19.649l-3.141,15.433
			c-2.101,7.16,0.399,14.61,6.469,19.149c6.371,4.73,14.992,4.878,21.75,0.132l39.793-29.781l40.039,29.957
			c3.168,2.231,6.852,3.34,10.531,3.34c3.848,0,7.699-1.219,10.949-3.648c6.079-4.532,8.579-11.981,6.489-19.153l-4.219-20.726
			l19.172-14.352l30.937,23.141c2.891,2.039,6.25,3.058,9.61,3.058c3.511,0,7.019-1.109,9.98-3.32
			c5.551-4.137,7.852-10.93,5.981-17.477l-7.219-35.433l25.93-21.508C210.125,452.195,212.613,444.867,210.465,438.093
			L210.465,438.093z M-38.895,486.855c-3.64-2.719-8.64-2.719-12.281,0l-28.429,21.281l6.57-32.25c0.758-3.699-0.59-7.519-3.5-9.93
			l-24.16-19.972l36.769-4.321c3.77-0.437,6.992-2.937,8.36-6.488l10.531-27.39l10.531,27.39c0.184,0.477,0.481,0.879,0.727,1.313
			l-2.688,0.316c-7.672,0.301-14.289,5.27-16.601,12.559c-2.329,7.39,0.39,15.382,6.152,19.39l34.309,28.391l-1.657,8.141
			L-38.895,486.855z M52.227,511.437c-3.641-2.723-8.641-2.723-12.282,0l-40.781,30.519l9.52-46.742
			c0.761-3.699-0.59-7.519-3.496-9.929l-34.692-28.668l51.731-6.09c3.769-0.442,6.988-2.942,8.359-6.492l15.488-40.29l15.5,40.29
			c1.371,3.55,4.59,6.05,8.36,6.492l51.703,6.078l-34.653,28.68c-2.91,2.41-4.257,6.23-3.5,9.929l9.512,46.742L52.227,511.437z
			 M160.543,465.956c-2.906,2.411-4.258,6.231-3.496,9.93l6.558,32.238l-28.421-21.269c-3.641-2.719-8.641-2.719-12.282,0
			l-17.547,13.137l-0.582-2.848l33.672-27.91c6.399-4.5,9.117-12.489,6.778-19.879c-2.309-7.289-8.918-12.25-16.59-12.551
			l-10.348-1.215c0.067-0.148,0.172-0.265,0.231-0.414l10.531-27.39l10.527,27.39c1.371,3.551,4.59,6.051,8.36,6.488l36.742,4.321
			L160.543,465.956z"/>
	</g>
</g>
</svg>
