<svg xmlns="http://www.w3.org/2000/svg" xmlns:xlink="http://www.w3.org/1999/xlink" preserveAspectRatio="xMidYMid" width="18" height="24" viewBox="0 0 18 24">
  <defs>
    <style>
      .cls-1 {
        fill: #7b7b7b;
        fill-rule: evenodd;
      }
    </style>
  </defs>
  <path d="M9.734,23.644 C9.536,23.898 8.892,24.296 8.267,23.644 C7.434,22.672 -0.000,13.841 -0.000,9.090 C-0.000,4.083 4.058,-0.001 9.000,-0.001 C13.942,-0.001 18.000,4.083 18.000,9.090 C18.000,13.841 10.566,22.672 9.734,23.644 ZM9.000,1.992 C5.088,1.992 1.956,5.158 1.956,9.090 C1.956,12.104 6.555,18.382 9.000,21.450 C11.497,18.387 16.044,12.104 16.044,9.090 C16.044,5.207 12.912,1.992 9.000,1.992 ZM10.711,8.786 L7.237,8.786 C6.701,8.786 6.259,8.324 6.259,7.764 C6.259,7.206 6.701,6.744 7.237,6.744 L10.711,6.744 C11.248,6.744 11.690,7.206 11.690,7.764 C11.690,8.373 11.252,8.786 10.711,8.786 Z" class="cls-1"/>
</svg>
