<svg xmlns="http://www.w3.org/2000/svg" xmlns:xlink="http://www.w3.org/1999/xlink" preserveAspectRatio="xMidYMid" width="22" height="22" viewBox="0 0 22 22">
  <defs>
    <style>
      .cls-1 {
        fill: #fff;
        fill-rule: evenodd;
      }
    </style>
  </defs>
  <path d="M21.084,1.836 L17.730,1.836 L15.557,13.639 C15.476,14.075 15.099,14.389 14.655,14.389 L13.519,14.389 L13.519,16.535 C14.587,16.926 15.355,17.963 15.355,19.184 C15.355,20.738 14.111,21.999 12.580,21.999 C11.049,21.999 9.806,20.738 9.806,19.184 C9.806,17.950 10.596,16.894 11.687,16.517 L11.687,14.389 L3.969,14.389 L3.969,16.490 C5.105,16.845 5.931,17.918 5.931,19.184 C5.931,20.738 4.687,21.999 3.156,21.999 C1.625,21.999 0.382,20.738 0.382,19.184 C0.382,17.999 1.109,16.980 2.137,16.566 L2.137,14.384 L0.916,14.384 C0.408,14.384 -0.000,13.976 -0.000,13.468 C-0.000,12.961 0.408,12.553 0.916,12.553 L13.891,12.553 L16.064,0.749 C16.145,0.314 16.527,-0.001 16.967,-0.001 L21.084,-0.001 C21.591,-0.001 22.000,0.408 22.000,0.920 C22.000,1.427 21.591,1.836 21.084,1.836 ZM3.156,18.201 C2.635,18.201 2.213,18.641 2.213,19.184 C2.213,19.728 2.635,20.167 3.156,20.167 C3.677,20.167 4.099,19.723 4.099,19.184 C4.099,18.641 3.677,18.201 3.156,18.201 ZM12.580,18.201 C12.059,18.201 11.637,18.641 11.637,19.184 C11.637,19.728 12.059,20.167 12.580,20.167 C13.101,20.167 13.523,19.723 13.523,19.184 C13.523,18.641 13.101,18.201 12.580,18.201 ZM12.315,11.331 L1.306,11.331 C0.799,11.331 0.390,10.918 0.390,10.411 L0.390,3.043 C0.390,2.536 0.799,2.127 1.306,2.127 L12.315,2.127 C12.823,2.127 13.231,2.536 13.231,3.043 L13.231,10.416 C13.231,10.923 12.823,11.331 12.315,11.331 ZM11.395,3.964 L2.222,3.964 L2.222,9.500 L11.395,9.500 L11.395,3.964 Z" class="cls-1"/>
</svg>
