<svg xmlns="http://www.w3.org/2000/svg" xmlns:xlink="http://www.w3.org/1999/xlink" preserveAspectRatio="xMidYMid" width="22" height="20" viewBox="0 0 22 20">
  <defs>
    <style>
      .cls-1 {
        fill: #c4c4c4;
        fill-rule: evenodd;
      }
    </style>
  </defs>
  <path d="M21.031,9.136 C22.669,10.199 22.122,12.831 20.207,13.159 C20.091,13.179 14.675,13.159 14.675,13.159 L15.432,15.250 C15.954,16.694 15.616,18.899 14.167,19.683 C13.696,19.938 13.037,20.066 12.506,19.931 C12.201,19.853 11.933,19.649 11.774,19.375 C11.590,19.060 11.609,18.693 11.544,18.343 C11.378,17.458 10.965,16.616 10.325,15.984 C9.210,14.882 5.746,11.704 5.746,11.704 L5.746,0.060 L17.717,0.060 C19.332,0.060 20.391,1.887 19.594,3.315 C20.544,3.931 20.869,5.229 20.313,6.225 C21.262,6.841 21.587,8.140 21.031,9.136 ZM3.591,11.764 L0.718,11.764 C0.323,11.764 -0.000,11.438 -0.000,11.037 L-0.000,0.727 C-0.000,0.326 0.322,-0.000 0.718,-0.000 L3.591,-0.000 C3.988,-0.000 4.309,0.326 4.309,0.727 L4.309,11.037 C4.309,11.438 3.986,11.764 3.591,11.764 Z" class="cls-1"/>
</svg>
