<svg xmlns="http://www.w3.org/2000/svg" xmlns:xlink="http://www.w3.org/1999/xlink" preserveAspectRatio="xMidYMid" width="24" height="30" viewBox="0 0 24 30">
  <defs>
    <style>
      .cls-1 {
        fill: #042b43;
        fill-rule: evenodd;
      }
    </style>
  </defs>
  <path d="M23.679,5.670 L18.225,0.313 C18.123,0.213 18.002,0.134 17.869,0.080 C17.737,0.027 17.597,0.000 17.455,-0.000 L3.273,-0.000 C1.465,-0.000 -0.000,1.439 -0.000,3.214 L-0.000,26.786 C-0.000,28.561 1.465,30.000 3.273,30.000 L20.727,30.000 C22.535,30.000 24.000,28.561 24.000,26.786 L24.000,6.428 C23.998,6.144 23.883,5.872 23.679,5.670 ZM21.818,26.786 C21.818,27.377 21.330,27.857 20.727,27.857 L3.273,27.857 C2.670,27.857 2.182,27.377 2.182,26.786 L2.182,3.214 C2.182,2.622 2.670,2.143 3.273,2.143 L16.364,2.143 L16.364,6.428 C16.364,7.020 16.852,7.500 17.455,7.500 L21.818,7.500 L21.818,26.786 L21.818,26.786 Z" class="cls-1"/>
</svg>
