<svg xmlns="http://www.w3.org/2000/svg" xmlns:xlink="http://www.w3.org/1999/xlink" preserveAspectRatio="xMidYMid" width="316.344" height="78.97" viewBox="0 0 316.344 78.97">
  <defs>
    <style>
      .cls-1 {
        fill: #fff;
        fill-rule: evenodd;
      }
    </style>
  </defs>
  <g>
    <path d="M287.626,41.370 L287.626,56.343 L282.167,56.343 L282.167,41.370 L274.712,41.370 L274.712,36.193 L295.081,36.193 L295.081,41.370 L287.626,41.370 ZM271.842,56.343 L270.157,53.243 L260.643,53.243 L262.951,48.934 L267.849,48.934 L264.386,42.455 L256.962,56.343 L250.942,56.343 L261.298,37.681 C261.860,36.689 262.671,36.193 263.731,36.193 L264.979,36.193 C266.040,36.193 266.851,36.689 267.412,37.681 L277.768,56.343 L271.842,56.343 ZM241.241,43.385 L237.716,54.421 C237.342,55.703 236.489,56.343 235.159,56.343 L233.505,56.343 C232.174,56.343 231.322,55.703 230.947,54.421 L227.423,43.168 L224.428,56.343 L219.031,56.343 L223.149,38.487 C223.315,37.640 223.627,37.046 224.085,36.705 C224.542,36.364 225.114,36.193 225.800,36.193 L228.078,36.193 C229.408,36.193 230.271,36.844 230.667,38.146 L234.348,50.205 L237.997,38.146 C238.392,36.844 239.245,36.193 240.555,36.193 L242.832,36.193 C243.518,36.193 244.090,36.364 244.548,36.705 C245.005,37.046 245.328,37.640 245.515,38.487 L249.664,56.343 L244.236,56.343 L241.241,43.385 ZM228.858,26.175 L223.399,26.175 L223.399,11.202 L215.944,11.202 L215.944,6.025 L236.313,6.025 L236.313,11.202 L228.858,11.202 L228.858,26.175 ZM216.911,56.343 L211.452,56.343 L211.452,43.416 L202.499,54.638 C202.020,55.238 201.563,55.672 201.127,55.940 C200.690,56.209 200.118,56.343 199.411,56.343 L198.319,56.343 C196.947,56.343 196.260,55.651 196.260,54.266 L196.260,36.193 L201.719,36.193 L201.719,47.942 L209.767,37.681 C210.204,37.123 210.651,36.736 211.109,36.519 C211.566,36.302 212.221,36.193 213.074,36.193 L214.384,36.193 C216.068,36.193 216.911,36.958 216.911,38.487 L216.911,56.343 ZM199.754,25.446 C198.444,24.961 197.316,24.279 196.370,23.400 C195.423,22.522 194.680,21.463 194.139,20.223 C193.598,18.983 193.328,17.609 193.328,16.100 C193.328,14.591 193.598,13.222 194.139,11.992 C194.680,10.763 195.423,9.704 196.370,8.815 C197.316,7.926 198.444,7.239 199.754,6.753 C201.064,6.268 202.499,6.025 204.059,6.025 L213.978,6.025 L213.978,11.202 L203.685,11.202 C202.977,11.202 202.322,11.321 201.719,11.558 C201.116,11.796 200.596,12.132 200.160,12.566 C199.723,13.000 199.380,13.517 199.130,14.116 C198.881,14.715 198.756,15.377 198.756,16.100 C198.756,16.823 198.881,17.485 199.130,18.084 C199.380,18.683 199.723,19.195 200.160,19.618 C200.596,20.042 201.116,20.373 201.719,20.610 C202.322,20.848 202.977,20.967 203.685,20.967 L213.978,20.967 L213.978,26.175 L204.059,26.175 C202.499,26.175 201.064,25.932 199.754,25.446 ZM187.371,41.122 L180.633,41.122 L179.385,49.895 C179.052,52.148 178.434,53.786 177.529,54.809 C176.624,55.832 175.319,56.343 173.614,56.343 L171.087,56.343 L171.087,51.135 L172.897,51.135 C173.333,51.135 173.681,50.996 173.942,50.717 C174.201,50.438 174.383,49.937 174.488,49.213 L176.203,36.193 L192.829,36.193 L192.829,56.343 L187.371,56.343 L187.371,41.122 ZM190.552,13.899 L190.552,18.208 L178.574,18.208 L178.574,13.899 L190.552,13.899 ZM171.306,6.025 L190.771,6.025 L190.771,11.202 L176.765,11.202 L176.765,20.967 L190.802,20.967 L190.802,26.175 L171.306,26.175 L171.306,6.025 ZM163.133,56.343 L154.836,47.880 C154.586,47.591 154.399,47.328 154.274,47.090 C154.150,46.853 154.087,46.568 154.087,46.237 L154.087,45.741 C154.087,45.163 154.326,44.615 154.805,44.098 L162.821,36.193 L169.809,36.193 L160.045,45.927 L170.308,56.343 L163.133,56.343 ZM168.686,20.254 C168.686,22.073 168.109,23.514 166.955,24.578 C165.800,25.643 164.132,26.175 161.948,26.175 L147.412,26.175 L147.412,6.025 L162.073,6.025 C163.154,6.025 164.085,6.159 164.865,6.428 C165.644,6.697 166.279,7.069 166.767,7.544 C167.256,8.019 167.614,8.582 167.844,9.233 C168.072,9.884 168.187,10.582 168.187,11.326 C168.187,12.380 167.989,13.274 167.594,14.007 C167.199,14.741 166.637,15.253 165.910,15.542 C166.700,15.790 167.360,16.317 167.890,17.123 C168.421,17.929 168.686,18.973 168.686,20.254 ZM162.884,18.502 C162.613,18.223 162.218,18.084 161.698,18.084 L154.680,18.084 L154.680,13.930 L161.386,13.930 C161.865,13.930 162.234,13.806 162.494,13.558 C162.754,13.310 162.884,12.948 162.884,12.473 C162.884,11.998 162.754,11.641 162.494,11.403 C162.234,11.166 161.865,11.047 161.386,11.047 L152.871,11.047 L152.871,21.122 L161.667,21.122 C162.748,21.122 163.289,20.636 163.289,19.665 C163.289,19.169 163.154,18.781 162.884,18.502 ZM152.871,56.343 L147.412,56.343 L147.412,36.193 L152.871,36.193 L152.871,56.343 Z" class="cls-1"/>
    <path d="M315.309,74.090 L315.309,65.837 L316.347,65.837 L316.347,74.090 L315.309,74.090 ZM311.036,74.090 L309.008,74.090 L309.008,65.837 L310.046,65.837 L310.046,68.896 L311.048,68.896 C313.003,68.896 314.198,69.711 314.198,71.427 C314.198,73.358 312.895,74.090 311.036,74.090 ZM311.060,69.711 L310.046,69.711 L310.046,73.250 L311.132,73.250 C312.267,73.250 313.088,72.890 313.088,71.451 C313.088,70.167 312.352,69.711 311.060,69.711 ZM303.862,70.311 C303.741,69.004 303.645,67.588 303.633,66.892 L301.762,73.142 L300.784,73.142 L298.829,66.880 C298.817,67.816 298.744,69.147 298.635,70.371 L298.346,74.090 L297.356,74.090 L298.056,65.837 L299.480,65.837 L301.303,71.943 L303.041,65.837 L304.466,65.837 L305.190,74.090 L304.176,74.090 L303.862,70.311 ZM289.616,65.837 L294.046,65.837 L293.925,66.676 L290.654,66.676 L290.654,69.459 L293.490,69.459 L293.490,70.299 L290.654,70.299 L290.654,73.250 L294.130,73.250 L294.130,74.090 L289.616,74.090 L289.616,65.837 ZM283.988,66.724 L283.988,74.090 L282.950,74.090 L282.950,66.724 L280.560,66.724 L280.560,65.837 L286.438,65.837 L286.318,66.724 L283.988,66.724 ZM276.127,73.346 C276.924,73.346 277.431,73.022 277.914,72.662 L278.433,73.322 C277.962,73.790 277.189,74.234 276.091,74.234 C274.099,74.234 272.651,72.734 272.651,69.963 C272.651,67.156 274.196,65.693 276.079,65.693 C277.105,65.693 277.684,65.981 278.336,66.496 L277.769,67.168 C277.238,66.748 276.743,66.556 276.139,66.556 C274.835,66.556 273.761,67.432 273.761,69.963 C273.761,72.374 274.799,73.346 276.127,73.346 ZM267.843,69.975 C267.843,68.692 267.927,67.624 267.988,67.000 L264.499,74.090 L263.160,74.090 L263.160,65.837 L264.198,65.837 L264.198,69.951 C264.198,71.379 264.137,72.254 264.053,72.962 L267.590,65.837 L268.893,65.837 L268.893,74.090 L267.843,74.090 L267.843,69.975 ZM257.544,73.346 C258.340,73.346 258.847,73.022 259.330,72.662 L259.849,73.322 C259.378,73.790 258.606,74.234 257.507,74.234 C255.516,74.234 254.067,72.734 254.067,69.963 C254.067,67.156 255.612,65.693 257.495,65.693 C258.521,65.693 259.101,65.981 259.753,66.496 L259.185,67.168 C258.654,66.748 258.159,66.556 257.556,66.556 C256.252,66.556 255.178,67.432 255.178,69.963 C255.178,72.374 256.216,73.346 257.544,73.346 ZM236.305,65.837 L240.735,65.837 L240.614,66.676 L237.343,66.676 L237.343,69.459 L240.180,69.459 L240.180,70.299 L237.343,70.299 L237.343,73.250 L240.820,73.250 L240.820,74.090 L236.305,74.090 L236.305,65.837 ZM230.966,65.837 L232.004,65.837 L232.004,74.090 L230.966,74.090 L230.966,65.837 ZM226.693,74.090 L224.665,74.090 L224.665,65.837 L225.703,65.837 L225.703,68.896 L226.705,68.896 C228.660,68.896 229.855,69.711 229.855,71.427 C229.855,73.358 228.552,74.090 226.693,74.090 ZM226.717,69.711 L225.703,69.711 L225.703,73.250 L226.789,73.250 C227.924,73.250 228.745,72.890 228.745,71.451 C228.745,70.167 228.008,69.711 226.717,69.711 ZM219.314,70.179 L215.705,70.179 L215.705,74.090 L214.667,74.090 L214.667,65.837 L215.705,65.837 L215.705,69.315 L219.314,69.315 L219.314,65.837 L220.364,65.837 L220.364,74.090 L219.314,74.090 L219.314,70.179 ZM208.001,71.019 L206.914,71.019 L206.914,74.090 L205.876,74.090 L205.876,65.837 L208.001,65.837 C209.980,65.837 211.188,66.640 211.188,68.368 C211.188,70.251 209.824,71.019 208.001,71.019 ZM207.989,66.652 L206.914,66.652 L206.914,70.191 L207.965,70.191 C209.232,70.191 210.077,69.807 210.077,68.380 C210.077,67.108 209.268,66.652 207.989,66.652 ZM197.665,65.837 L202.095,65.837 L201.975,66.676 L198.703,66.676 L198.703,69.459 L201.540,69.459 L201.540,70.299 L198.703,70.299 L198.703,73.250 L202.180,73.250 L202.180,74.090 L197.665,74.090 L197.665,65.837 ZM192.315,70.179 L188.705,70.179 L188.705,74.090 L187.667,74.090 L187.667,65.837 L188.705,65.837 L188.705,69.315 L192.315,69.315 L192.315,65.837 L193.365,65.837 L193.365,74.090 L192.315,74.090 L192.315,70.179 ZM179.456,65.837 L183.886,65.837 L183.766,66.676 L180.495,66.676 L180.495,69.459 L183.331,69.459 L183.331,70.299 L180.495,70.299 L180.495,73.250 L183.971,73.250 L183.971,74.090 L179.456,74.090 L179.456,65.837 ZM175.143,74.090 L173.031,70.179 L172.005,70.179 L172.005,74.090 L171.003,74.090 L171.003,70.179 L169.977,70.179 L167.852,74.090 L166.694,74.090 L169.132,69.711 L166.923,65.837 L168.046,65.837 L169.989,69.315 L171.003,69.315 L171.003,65.837 L172.005,65.837 L172.005,69.315 L173.031,69.315 L174.998,65.837 L176.097,65.837 L173.888,69.711 L176.314,74.090 L175.143,74.090 ZM162.514,70.179 L158.905,70.179 L158.905,74.090 L157.866,74.090 L157.866,65.837 L158.905,65.837 L158.905,69.315 L162.514,69.315 L162.514,65.837 L163.564,65.837 L163.564,74.090 L162.514,74.090 L162.514,70.179 ZM152.516,69.975 C152.516,68.692 152.600,67.624 152.661,67.000 L149.172,74.090 L147.832,74.090 L147.832,65.837 L148.870,65.837 L148.870,69.951 C148.870,71.379 148.810,72.254 148.725,72.962 L152.262,65.837 L153.566,65.837 L153.566,74.090 L152.516,74.090 L152.516,69.975 Z" class="cls-1"/>
    <path d="M119.498,61.292 C105.972,80.431 36.965,33.811 56.796,13.683 C55.150,29.476 82.434,46.933 95.444,50.811 C100.038,52.181 103.098,53.560 108.129,53.004 C117.757,51.940 116.849,44.386 114.070,38.892 C118.192,42.906 124.060,54.838 119.498,61.292 ZM104.182,48.889 C98.648,48.454 90.353,45.522 85.464,42.857 C79.564,39.642 75.925,36.714 70.986,31.831 C69.846,30.777 99.073,46.855 103.945,39.958 C108.515,33.489 88.147,18.000 88.592,18.000 C89.460,18.000 101.575,26.872 103.132,28.346 C106.920,31.929 115.353,40.258 112.457,45.998 C110.832,49.218 107.585,49.155 104.182,48.889 ZM44.837,8.169 C38.015,10.164 37.044,15.966 38.449,22.540 C39.381,26.902 45.671,36.928 48.877,40.175 C59.632,51.070 70.619,59.724 85.074,65.049 C93.243,68.059 106.208,71.294 116.197,67.751 C113.378,73.011 108.809,76.814 99.902,78.463 C95.581,79.263 91.071,79.051 83.763,78.277 C76.454,77.503 67.856,75.345 60.222,73.112 C52.589,70.879 45.921,68.570 36.431,63.225 C26.941,57.881 14.629,49.501 7.470,39.715 C0.311,29.929 -1.695,18.737 1.407,11.543 C4.508,4.348 12.717,1.150 21.338,0.272 C29.960,-0.607 38.994,0.833 43.943,1.725 C48.892,2.617 49.756,2.961 50.907,3.295 C52.059,3.630 53.498,3.955 56.952,5.103 C59.662,6.004 63.611,7.410 67.828,8.926 C77.830,12.520 54.394,5.375 44.837,8.169 Z" class="cls-1"/>
  </g>
</svg>
