<svg xmlns="http://www.w3.org/2000/svg" xmlns:xlink="http://www.w3.org/1999/xlink" preserveAspectRatio="xMidYMid" width="20" height="24" viewBox="0 0 20 24">
  <defs>
    <style>
      .cls-1 {
        fill: #042b43;
        fill-rule: evenodd;
      }
    </style>
  </defs>
  <path d="M11.957,0.736 L19.807,13.557 C19.932,13.762 19.999,13.996 19.999,14.234 C19.999,16.844 18.959,19.298 17.070,21.144 C15.181,22.989 12.670,24.006 9.999,24.006 C4.486,24.006 -0.000,19.622 -0.000,14.234 C-0.000,13.996 0.066,13.762 0.192,13.557 C0.192,13.557 8.295,1.013 8.510,0.736 C9.300,-0.281 10.880,-0.245 11.957,0.736 ZM9.999,2.697 L16.274,12.918 L3.724,12.918 L9.999,2.697 ZM9.999,21.374 C6.431,21.374 3.452,18.861 2.818,15.550 L17.180,15.550 C16.546,18.861 13.568,21.374 9.999,21.374 Z" class="cls-1"/>
</svg>
