<svg xmlns="http://www.w3.org/2000/svg" xmlns:xlink="http://www.w3.org/1999/xlink" preserveAspectRatio="xMidYMid" width="30" height="30" viewBox="0 0 30 30">
  <defs>
    <style>
      .cls-1 {
        fill: #042b43;
        fill-rule: evenodd;
      }
    </style>
  </defs>
  <path d="M28.751,2.504 L24.178,2.504 L21.214,18.600 C21.104,19.194 20.590,19.622 19.984,19.622 L18.435,19.622 L18.435,22.549 C19.892,23.082 20.939,24.495 20.939,26.161 C20.939,28.279 19.243,30.000 17.155,30.000 C15.067,30.000 13.371,28.279 13.371,26.161 C13.371,24.477 14.449,23.038 15.936,22.524 L15.936,19.622 L5.412,19.622 L5.412,22.488 C6.961,22.971 8.088,24.435 8.088,26.161 C8.088,28.279 6.392,30.000 4.304,30.000 C2.216,30.000 0.520,28.279 0.520,26.161 C0.520,24.545 1.512,23.155 2.914,22.591 L2.914,19.616 L1.249,19.616 C0.557,19.616 -0.000,19.059 -0.000,18.367 C-0.000,17.675 0.557,17.118 1.249,17.118 L18.943,17.118 L21.906,1.022 C22.016,0.428 22.537,-0.000 23.137,-0.000 L28.751,-0.000 C29.443,-0.000 30.000,0.557 30.000,1.254 C30.000,1.947 29.443,2.504 28.751,2.504 ZM4.304,24.820 C3.594,24.820 3.018,25.420 3.018,26.161 C3.018,26.902 3.594,27.502 4.304,27.502 C5.014,27.502 5.590,26.896 5.590,26.161 C5.590,25.420 5.014,24.820 4.304,24.820 ZM17.155,24.820 C16.445,24.820 15.869,25.420 15.869,26.161 C15.869,26.902 16.445,27.502 17.155,27.502 C17.865,27.502 18.441,26.896 18.441,26.161 C18.441,25.420 17.865,24.820 17.155,24.820 ZM16.794,15.453 L1.782,15.453 C1.090,15.453 0.533,14.889 0.533,14.198 L0.533,4.151 C0.533,3.459 1.090,2.902 1.782,2.902 L16.794,2.902 C17.486,2.902 18.043,3.459 18.043,4.151 L18.043,14.204 C18.043,14.896 17.486,15.453 16.794,15.453 ZM15.539,5.406 L3.031,5.406 L3.031,12.955 L15.539,12.955 L15.539,5.406 Z" class="cls-1"/>
</svg>
