<svg xmlns="http://www.w3.org/2000/svg" xmlns:xlink="http://www.w3.org/1999/xlink" preserveAspectRatio="xMidYMid" width="48" height="48" viewBox="0 0 24 24">
  <defs>
    <style>
      .cls-1 {
        fill: #4f9abd;
        fill-rule: evenodd;
      }
    </style>
  </defs>
  <path d="M10.246,18.509 C5.696,18.509 2.008,14.820 2.008,10.263 C2.008,5.705 5.696,2.016 10.246,2.016 C14.796,2.016 18.479,5.710 18.479,10.263 C18.479,14.815 14.791,18.509 10.246,18.509 L10.246,18.509 ZM23.705,22.336 L18.156,16.778 C19.611,15.006 20.488,12.735 20.488,10.263 C20.488,4.597 15.903,-0.000 10.241,-0.000 C4.579,-0.000 -0.000,4.597 -0.000,10.263 C-0.000,15.929 4.584,20.526 10.246,20.526 C12.715,20.526 14.978,19.653 16.746,18.195 L22.295,23.754 C22.549,24.014 23.328,24.142 23.710,23.754 C24.097,23.361 24.097,22.729 23.705,22.336 L23.705,22.336 Z" class="cls-1"/>
</svg>
