<svg xmlns="http://www.w3.org/2000/svg" width="30" height="30" viewBox="0 0 30 30">
  <defs>
    <style>
      .cls-1 {
        fill: #fff;
        fill-rule: evenodd;
      }
    </style>
  </defs>
  <path id="Фигура_11" data-name="Фигура 11" class="cls-1" d="M745.625,2311h-11.25a9.378,9.378,0,0,1-9.375-9.38v-11.25a9.376,9.376,0,0,1,9.375-9.37h11.25a9.376,9.376,0,0,1,9.375,9.37v11.25A9.378,9.378,0,0,1,745.625,2311Zm6.562-20.63a6.573,6.573,0,0,0-6.562-6.56h-11.25a6.573,6.573,0,0,0-6.563,6.56v11.25a6.576,6.576,0,0,0,6.563,6.57h11.25a6.575,6.575,0,0,0,6.562-6.57v-11.25Zm-4.125-1.43a1,1,0,1,1,1-1A1,1,0,0,1,748.062,2288.94ZM740,2303.5a7.5,7.5,0,1,1,7.5-7.5A7.5,7.5,0,0,1,740,2303.5Zm0-12.19a4.69,4.69,0,1,0,4.687,4.69A4.692,4.692,0,0,0,740,2291.31Z" transform="translate(-725 -2281)"/>
</svg>
