<svg xmlns="http://www.w3.org/2000/svg" xmlns:xlink="http://www.w3.org/1999/xlink" preserveAspectRatio="xMidYMid" width="22" height="20" viewBox="0 0 22 20">
  <defs>
    <style>
      .cls-1 {
        fill: #c4c4c4;
        fill-rule: evenodd;
      }
    </style>
  </defs>
  <path d="M21.031,10.863 C21.587,11.860 21.262,13.158 20.312,13.774 C20.869,14.771 20.544,16.069 19.594,16.685 C20.391,18.112 19.332,19.940 17.717,19.939 L5.746,19.939 L5.746,8.296 C5.746,8.296 9.210,5.117 10.325,4.015 C10.965,3.384 11.378,2.541 11.544,1.656 C11.609,1.307 11.590,0.939 11.774,0.624 C11.933,0.351 12.201,0.146 12.506,0.069 C13.037,-0.067 13.696,0.061 14.167,0.316 C15.616,1.100 15.954,3.306 15.432,4.750 L14.675,6.841 C14.675,6.841 20.091,6.821 20.207,6.841 C22.122,7.169 22.669,9.800 21.031,10.863 ZM3.591,20.000 L0.718,20.000 C0.322,20.000 -0.000,19.674 -0.000,19.272 L-0.000,8.963 C-0.000,8.561 0.323,8.235 0.718,8.235 L3.591,8.235 C3.986,8.235 4.310,8.561 4.310,8.963 L4.310,19.272 C4.310,19.674 3.988,20.000 3.591,20.000 Z" class="cls-1"/>
</svg>
