<svg xmlns="http://www.w3.org/2000/svg" xmlns:xlink="http://www.w3.org/1999/xlink" preserveAspectRatio="xMidYMid" width="157" height="134" viewBox="0 0 157 134">
  <defs>
    <style>
      .cls-1 {
        fill: #e7e7e7;
        fill-rule: evenodd;
      }
    </style>
  </defs>
  <path d="M143.200,116.134 L138.601,116.134 L138.601,129.533 C138.601,133.111 134.491,135.219 131.450,133.250 L105.011,116.134 L59.795,116.134 C52.186,116.134 45.996,110.122 45.996,102.733 L45.996,84.279 L25.549,97.516 C22.513,99.482 18.398,97.377 18.398,93.800 L18.398,80.399 L13.798,80.399 C6.190,80.399 -0.000,74.388 -0.000,67.000 L-0.000,13.400 C-0.000,6.010 6.190,-0.001 13.798,-0.001 L97.205,-0.001 C104.813,-0.001 111.004,6.010 111.004,13.400 L111.004,35.733 L143.201,35.733 C150.810,35.733 157.000,41.745 156.999,49.133 L156.999,102.733 C156.999,110.122 150.809,116.134 143.200,116.134 ZM101.805,13.400 C101.805,10.937 99.741,8.932 97.205,8.932 L13.798,8.932 C11.262,8.932 9.199,10.937 9.199,13.400 L9.199,67.000 C9.199,69.463 11.262,71.466 13.798,71.466 L22.998,71.466 C25.538,71.466 27.597,73.466 27.597,75.933 L27.597,85.454 L48.018,72.233 C48.022,72.230 48.027,72.228 48.031,72.225 C48.785,71.733 49.705,71.466 50.595,71.466 L97.205,71.466 C99.741,71.466 101.805,69.463 101.805,67.000 L101.805,13.400 ZM147.801,49.133 C147.801,46.670 145.737,44.666 143.201,44.666 L111.004,44.666 L111.004,67.000 C111.004,74.388 104.813,80.399 97.205,80.399 L55.195,80.399 L55.195,102.733 C55.195,105.196 57.258,107.199 59.795,107.199 L106.404,107.199 C107.312,107.199 108.200,107.461 108.955,107.950 L129.402,121.187 L129.402,111.667 C129.402,109.200 131.462,107.199 134.002,107.199 L143.201,107.199 C145.737,107.199 147.801,105.196 147.801,102.733 L147.801,49.133 ZM88.006,35.733 L22.998,35.733 C20.457,35.733 18.398,33.733 18.398,31.265 C18.398,28.800 20.457,26.799 22.998,26.799 L88.006,26.799 C90.546,26.799 92.605,28.800 92.605,31.265 C92.605,33.733 90.546,35.733 88.006,35.733 ZM22.998,44.666 L59.795,44.666 C62.335,44.666 64.394,46.666 64.394,49.133 C64.394,51.600 62.335,53.599 59.795,53.599 L22.998,53.599 C20.457,53.599 18.398,51.600 18.398,49.133 C18.398,46.666 20.457,44.666 22.998,44.666 Z" class="cls-1"/>
</svg>
