<svg xmlns="http://www.w3.org/2000/svg" xmlns:xlink="http://www.w3.org/1999/xlink" preserveAspectRatio="xMidYMid" width="24" height="24" viewBox="0 0 24 24">
  <defs>
    <style>
      .cls-1 {
        fill: #e7e7e7;
        fill-rule: evenodd;
      }
    </style>
  </defs>
  <path d="M13.732,12.003 L23.586,2.193 C24.058,1.725 24.058,0.967 23.586,0.500 C23.114,0.032 22.349,0.032 21.878,0.500 L12.033,10.301 L2.097,0.354 C1.626,-0.119 0.861,-0.119 0.389,0.354 C-0.082,0.828 -0.082,1.596 0.389,2.069 L10.318,12.009 L0.354,21.928 C-0.118,22.396 -0.118,23.154 0.354,23.621 C0.825,24.089 1.590,24.089 2.061,23.621 L12.017,13.710 L21.914,23.617 C22.385,24.090 23.150,24.090 23.621,23.617 C24.093,23.143 24.093,22.376 23.621,21.903 L13.732,12.003 Z" class="cls-1"/>
</svg>
