<svg xmlns="http://www.w3.org/2000/svg" xmlns:xlink="http://www.w3.org/1999/xlink" preserveAspectRatio="xMidYMid" width="53" height="70" viewBox="0 0 53 70">
  <defs>
    <style>
      .cls-1 {
        fill: #4f9abd;
        fill-rule: evenodd;
      }
    </style>
  </defs>
  <path d="M28.660,68.960 C28.078,69.704 26.182,70.864 24.340,68.960 C21.889,66.125 -0.000,40.371 -0.000,26.512 C-0.000,11.909 11.948,-0.002 26.500,-0.002 C41.051,-0.002 53.000,11.909 53.000,26.512 C53.000,40.371 31.111,66.125 28.660,68.960 ZM31.539,25.625 L21.308,25.625 C19.730,25.625 18.428,24.278 18.428,22.646 C18.428,21.015 19.730,19.668 21.308,19.668 L31.539,19.668 C33.118,19.668 34.419,21.015 34.419,22.646 C34.419,24.422 33.132,25.625 31.539,25.625 Z" class="cls-1"/>
</svg>
