<svg xmlns="http://www.w3.org/2000/svg" width="16" height="16" viewBox="0 0 16 16">
  <defs>
    <style>
      .cls-1 {
        fill: #4f9abd;
        fill-rule: evenodd;
      }
    </style>
  </defs>
  <path id="Фигура_7_копия_2" data-name="Фигура 7 копия 2" class="cls-1" d="M687.984,1305.09a0.3,0.3,0,0,0-.231-0.21l-5.18-.79-2.316-4.92a0.279,0.279,0,0,0-.514,0l-2.316,4.92-5.18.79a0.3,0.3,0,0,0-.232.21,0.316,0.316,0,0,0,.073.31l3.748,3.83-0.885,5.42a0.3,0.3,0,0,0,.114.29,0.276,0.276,0,0,0,.3.03l4.634-2.56,4.633,2.56a0.311,0.311,0,0,0,.133.03,0.271,0.271,0,0,0,.169-0.06,0.3,0.3,0,0,0,.113-0.29l-0.884-5.42,3.748-3.83A0.313,0.313,0,0,0,687.984,1305.09Z" transform="translate(-672 -1299)"/>
</svg>
