<svg xmlns="http://www.w3.org/2000/svg" xmlns:xlink="http://www.w3.org/1999/xlink" preserveAspectRatio="xMidYMid" width="20" height="20" viewBox="0 0 20 20">
  <defs>
    <style>
      .cls-1 {
        fill: #e7e7e7;
      }

      .cls-2 {
        fill: #042b43;
        fill-rule: evenodd;
      }
    </style>
  </defs>
  <g>
    <circle cx="10" cy="10" r="10" class="cls-1"/>
    <path d="M9.746,4.359 C8.481,4.359 7.521,4.840 6.656,5.832 L7.297,6.344 C8.017,5.528 8.737,5.160 9.697,5.160 C10.818,5.160 11.538,5.768 11.538,6.744 C11.538,8.697 8.673,8.377 8.673,11.066 L8.673,12.011 L9.585,12.011 L9.585,11.130 C9.585,8.825 12.515,9.145 12.515,6.696 C12.515,5.448 11.522,4.359 9.746,4.359 ZM9.169,14.155 C8.721,14.155 8.401,14.492 8.401,14.908 C8.401,15.340 8.721,15.676 9.169,15.676 C9.617,15.676 9.938,15.340 9.938,14.908 C9.938,14.492 9.617,14.155 9.169,14.155 Z" class="cls-2"/>
  </g>
</svg>
