<svg xmlns="http://www.w3.org/2000/svg" width="39.969" height="22" viewBox="0 0 39.969 22">
  <defs>
    <style>
      .cls-1 {
        fill: #fff;
        fill-rule: evenodd;
      }
    </style>
  </defs>
  <path id="Фигура_10" data-name="Фигура 10" class="cls-1" d="M509.43,2298.99a53.211,53.211,0,0,1,3.915,3.83,11.03,11.03,0,0,1,1.4,1.96,1.4,1.4,0,0,1-.886,2.2h-5.824a4.565,4.565,0,0,1-3.708-1.47c-0.806-.8-1.553-1.65-2.328-2.47a5.356,5.356,0,0,0-1.048-.91,1.232,1.232,0,0,0-1.939.46,5.807,5.807,0,0,0-.613,2.64c-0.063,1.34-.477,1.69-1.855,1.75a15.24,15.24,0,0,1-8.333-1.75,18.216,18.216,0,0,1-5.607-5.1,68.3,68.3,0,0,1-7.38-12.79c-0.466-1.01-.125-1.55,1.019-1.57q2.85-.06,5.7,0a1.666,1.666,0,0,1,1.582,1.15,34.365,34.365,0,0,0,3.864,6.96,6.018,6.018,0,0,0,1.46,1.56,0.9,0.9,0,0,0,1.507-.43,4.677,4.677,0,0,0,.336-1.46,21.186,21.186,0,0,0-.094-5.12,2.159,2.159,0,0,0-1.869-1.95c-0.556-.11-0.473-0.31-0.2-0.62a2.116,2.116,0,0,1,1.786-.86H496.9a1.539,1.539,0,0,1,1.408,1.67l0.006,7.11a2.047,2.047,0,0,0,.928,1.81,1.309,1.309,0,0,0,1.315-.62,22.069,22.069,0,0,0,3.705-5.54c0.446-.88.829-1.79,1.2-2.7a1.416,1.416,0,0,1,1.488-.99l6.334,0.01a3.468,3.468,0,0,1,.56.03c1.068,0.18,1.36.63,1.03,1.64a15.276,15.276,0,0,1-2.518,4.25c-1.056,1.42-2.186,2.79-3.234,4.22-0.962,1.31-.886,1.96.31,3.1h0Z" transform="translate(-475.031 -2285)"/>
</svg>
