<svg xmlns="http://www.w3.org/2000/svg" xmlns:xlink="http://www.w3.org/1999/xlink" preserveAspectRatio="xMidYMid" width="62" height="62" viewBox="0 0 62 62">
  <defs>
    <style>
      .cls-1 {
        fill: #4f9abd;
        fill-rule: evenodd;
      }

      .cls-2 {
        stroke: #4f9abd;
        stroke-width: 2px;
        fill: none;
      }
    </style>
  </defs>
  <g>
    <path d="M44.012,41.133 L43.015,41.133 L43.015,44.033 C43.015,44.808 42.125,45.264 41.467,44.838 L35.741,41.133 L25.949,41.133 C24.301,41.133 22.961,39.832 22.961,38.233 L22.961,34.240 L18.533,37.104 C17.875,37.530 16.984,37.074 16.984,36.300 L16.984,33.400 L15.988,33.400 C14.340,33.400 13.000,32.099 13.000,30.500 L13.000,18.900 C13.000,17.301 14.340,16.000 15.988,16.000 L34.051,16.000 C35.698,16.000 37.039,17.301 37.039,18.900 L37.039,23.733 L44.012,23.733 C45.659,23.733 47.000,25.034 47.000,26.633 L47.000,38.233 C47.000,39.832 45.659,41.133 44.012,41.133 ZM35.047,18.900 C35.047,18.367 34.600,17.933 34.051,17.933 L15.988,17.933 C15.439,17.933 14.992,18.367 14.992,18.900 L14.992,30.500 C14.992,31.033 15.439,31.467 15.988,31.467 L17.980,31.467 C18.531,31.467 18.976,31.899 18.976,32.433 L18.976,34.494 L23.399,31.633 C23.400,31.632 23.401,31.631 23.402,31.631 C23.565,31.524 23.764,31.467 23.957,31.467 L34.051,31.467 C34.600,31.467 35.047,31.033 35.047,30.500 L35.047,18.900 ZM45.008,26.633 C45.008,26.100 44.561,25.667 44.012,25.667 L37.039,25.667 L37.039,30.500 C37.039,32.099 35.698,33.400 34.051,33.400 L24.953,33.400 L24.953,38.233 C24.953,38.766 25.400,39.200 25.949,39.200 L36.043,39.200 C36.240,39.200 36.432,39.257 36.595,39.362 L41.023,42.227 L41.023,40.167 C41.023,39.633 41.469,39.200 42.020,39.200 L44.012,39.200 C44.561,39.200 45.008,38.766 45.008,38.233 L45.008,26.633 ZM32.059,23.733 L17.980,23.733 C17.430,23.733 16.984,23.300 16.984,22.766 C16.984,22.233 17.430,21.800 17.980,21.800 L32.059,21.800 C32.609,21.800 33.055,22.233 33.055,22.766 C33.055,23.300 32.609,23.733 32.059,23.733 ZM17.980,25.667 L25.949,25.667 C26.499,25.667 26.945,26.099 26.945,26.633 C26.945,27.167 26.499,27.600 25.949,27.600 L17.980,27.600 C17.430,27.600 16.984,27.167 16.984,26.633 C16.984,26.099 17.430,25.667 17.980,25.667 Z" class="cls-1"/>
    <circle cx="31" cy="31" r="30" class="cls-2"/>
  </g>
</svg>
