<svg xmlns="http://www.w3.org/2000/svg" xmlns:xlink="http://www.w3.org/1999/xlink" preserveAspectRatio="xMidYMid" width="62" height="62" viewBox="0 0 62 62">
  <defs>
    <style>
      .cls-1 {
        stroke: #4f9abd;
        stroke-width: 2px;
        fill: none;
      }

      .cls-2 {
        fill: #4f9abd;
        fill-rule: evenodd;
      }
    </style>
  </defs>
  <g>
    <circle cx="31" cy="31" r="30" class="cls-1"/>
    <path d="M46.125,38.077 L41.899,33.850 C40.733,32.685 38.837,32.685 37.672,33.850 L35.750,35.771 C34.868,36.654 33.431,36.654 32.549,35.772 L24.221,27.437 C23.336,26.553 23.336,25.120 24.221,24.235 C24.531,23.926 25.419,23.037 26.142,22.314 C27.303,21.154 27.319,19.264 26.141,18.087 L21.916,13.874 C20.750,12.709 18.854,12.709 17.692,13.871 C16.822,14.733 16.542,15.011 16.152,15.398 C11.949,19.600 11.949,26.437 16.152,30.639 L29.346,43.840 C33.558,48.052 40.376,48.053 44.588,43.840 L46.125,42.303 C47.291,41.138 47.291,39.242 46.125,38.077 ZM19.098,15.283 C19.486,14.895 20.118,14.895 20.508,15.284 L24.733,19.497 C25.123,19.886 25.123,20.516 24.733,20.905 L24.029,21.610 L18.397,15.978 L19.098,15.283 ZM30.755,42.432 L17.561,29.230 C14.309,25.979 14.131,20.874 17.011,17.410 L22.627,23.025 C21.151,24.698 21.213,27.247 22.812,28.846 L31.139,37.180 C31.139,37.180 31.139,37.180 31.139,37.180 C32.737,38.778 35.286,38.843 36.960,37.366 L42.576,42.981 C39.123,45.856 34.029,45.705 30.755,42.432 ZM44.716,40.894 L44.012,41.599 L38.376,35.963 L39.081,35.259 C39.469,34.870 40.101,34.870 40.490,35.259 L44.716,39.486 C45.105,39.874 45.105,40.506 44.716,40.894 Z" class="cls-2"/>
  </g>
</svg>
