<svg xmlns="http://www.w3.org/2000/svg" xmlns:xlink="http://www.w3.org/1999/xlink" preserveAspectRatio="xMidYMid" width="62" height="62" viewBox="0 0 62 62">
  <defs>
    <style>
      .cls-1 {
        stroke: #4f9abd;
        stroke-width: 2px;
        fill: none;
      }

      .cls-2 {
        fill: #4f9abd;
        fill-rule: evenodd;
      }
    </style>
  </defs>
  <g>
    <circle cx="31" cy="31" r="30" class="cls-1"/>
    <path d="M42.000,47.000 L18.000,47.000 C16.348,47.000 15.000,45.661 15.000,44.012 L15.000,26.082 C15.000,26.082 15.000,26.081 15.000,26.080 C15.000,25.834 15.096,25.581 15.283,25.388 C15.286,25.385 15.289,25.381 15.293,25.377 L19.000,21.685 L19.000,13.996 C19.000,13.446 19.448,13.000 20.000,13.000 L40.000,13.000 C40.552,13.000 41.000,13.446 41.000,13.996 L41.000,21.685 L44.707,25.377 C44.896,25.565 45.000,25.823 45.000,26.080 C45.000,26.081 45.000,26.082 45.000,26.082 L45.000,44.012 C45.000,45.658 43.656,47.000 42.000,47.000 ZM41.586,45.008 L33.586,37.039 L26.414,37.039 L18.414,45.008 L41.586,45.008 ZM19.000,24.502 L17.414,26.082 L19.000,27.662 L19.000,24.502 ZM17.000,28.487 L17.000,43.599 L24.586,36.043 L17.000,28.487 ZM39.000,22.098 C39.000,22.098 39.000,22.097 39.000,22.097 L39.000,14.992 L21.000,14.992 L21.000,22.097 C21.000,22.097 21.000,22.098 21.000,22.098 L21.000,29.654 L26.414,35.047 L33.586,35.047 L39.000,29.654 L39.000,22.098 ZM41.000,24.502 L41.000,27.662 L42.586,26.082 L41.000,24.502 ZM43.000,28.487 L35.414,36.043 L43.000,43.599 L43.000,28.487 ZM27.311,28.154 C28.795,29.101 30.634,29.190 32.358,28.401 C32.860,28.171 33.454,28.389 33.685,28.889 C33.915,29.389 33.696,29.980 33.194,30.210 C30.836,31.291 28.299,31.151 26.232,29.832 C24.208,28.540 23.000,26.344 23.000,23.957 C23.000,20.112 26.140,16.984 30.000,16.984 C33.860,16.984 37.000,20.112 37.000,23.957 C37.000,25.605 35.654,26.945 34.000,26.945 C33.232,26.945 32.531,26.656 32.000,26.182 C31.469,26.656 30.768,26.945 30.000,26.945 C28.346,26.945 27.000,25.605 27.000,23.957 C27.000,22.309 28.346,20.968 30.000,20.968 C31.654,20.968 33.000,22.309 33.000,23.957 C33.000,23.962 33.000,23.967 33.000,23.972 C33.025,24.572 33.496,24.953 34.000,24.953 C34.551,24.953 35.000,24.506 35.000,23.957 C35.000,21.211 32.757,18.976 30.000,18.976 C27.243,18.976 25.000,21.211 25.000,23.957 C25.000,25.661 25.864,27.231 27.311,28.154 ZM30.000,22.961 C29.449,22.961 29.000,23.408 29.000,23.957 C29.000,24.506 29.449,24.953 30.000,24.953 C30.497,24.953 30.909,24.590 30.986,24.117 C30.975,24.026 30.978,23.934 30.993,23.843 C30.936,23.347 30.513,22.961 30.000,22.961 Z" class="cls-2"/>
  </g>
</svg>
