<svg xmlns="http://www.w3.org/2000/svg" xmlns:xlink="http://www.w3.org/1999/xlink" preserveAspectRatio="xMidYMid" width="62" height="62" viewBox="0 0 62 62">
  <defs>
    <style>
      .cls-1 {
        stroke: #4f9abd;
        stroke-width: 2px;
        fill: none;
      }

      .cls-2 {
        fill: #4f9abd;
        fill-rule: evenodd;
      }
    </style>
  </defs>
  <g>
    <circle cx="31" cy="31" r="30" class="cls-1"/>
    <path d="M46.374,40.927 L36.417,44.925 C36.094,45.056 35.881,44.971 35.815,44.971 C35.776,44.960 35.781,44.964 35.726,44.946 L23.990,41.062 L14.366,44.926 C13.716,45.187 13.000,44.708 13.000,43.998 L13.000,20.001 C13.000,19.592 13.248,19.224 13.626,19.072 L23.587,15.073 C23.792,14.990 24.041,14.976 24.269,15.052 L36.010,18.937 L45.634,15.073 C46.288,14.810 47.000,15.295 47.000,16.001 L47.000,39.998 C47.000,40.407 46.752,40.775 46.374,40.927 ZM22.961,17.478 L14.992,20.678 L14.992,42.521 L22.961,39.321 L22.961,17.478 ZM35.047,33.700 C34.723,33.736 33.643,33.586 32.667,33.171 C32.160,32.955 31.924,32.368 32.139,31.860 C32.353,31.351 32.938,31.114 33.444,31.329 C33.938,31.540 34.466,31.668 35.013,31.710 C35.024,31.711 35.035,31.713 35.047,31.715 L35.047,20.724 L24.953,17.384 L24.953,24.965 C25.354,24.971 25.756,25.012 26.148,25.087 C26.688,25.191 27.042,25.715 26.939,26.258 C26.835,26.799 26.314,27.155 25.773,27.051 C25.504,27.000 25.229,26.972 24.953,26.966 L24.953,39.275 L35.047,42.615 L35.047,33.700 ZM45.008,17.478 L37.039,20.678 L37.039,42.521 L45.008,39.321 L45.008,17.478 ZM38.109,30.950 C38.562,30.660 38.957,30.298 39.283,29.874 C39.619,29.436 40.244,29.356 40.680,29.693 C41.116,30.030 41.196,30.658 40.860,31.095 C40.393,31.703 39.828,32.222 39.180,32.636 C38.716,32.933 38.100,32.796 37.805,32.331 C37.509,31.865 37.645,31.247 38.109,30.950 ZM40.737,26.585 L41.087,25.649 C41.280,25.132 41.854,24.870 42.369,25.064 C42.884,25.258 43.145,25.834 42.952,26.351 L42.602,27.287 C42.452,27.689 42.073,27.936 41.670,27.936 C40.975,27.936 40.493,27.238 40.737,26.585 ZM30.013,27.358 C30.696,28.178 30.965,28.884 31.129,29.193 C31.387,29.681 31.204,30.286 30.718,30.546 C30.233,30.805 29.629,30.621 29.371,30.133 C29.160,29.737 28.993,29.251 28.485,28.641 C28.132,28.217 28.188,27.587 28.610,27.233 C29.032,26.878 29.660,26.934 30.013,27.358 ZM17.350,32.734 C17.524,32.210 18.089,31.927 18.610,32.102 C19.132,32.277 19.414,32.843 19.240,33.367 L18.925,34.315 C18.751,34.840 18.187,35.122 17.665,34.948 C17.143,34.773 16.861,34.207 17.035,33.683 L17.350,32.734 ZM18.644,28.952 C18.960,28.244 19.384,27.607 19.903,27.058 C20.282,26.657 20.912,26.641 21.311,27.021 C21.710,27.401 21.727,28.034 21.348,28.435 C20.984,28.820 20.686,29.269 20.462,29.770 C20.237,30.273 19.648,30.499 19.146,30.273 C18.644,30.047 18.419,29.456 18.644,28.952 Z" class="cls-2"/>
  </g>
</svg>
